# xmcd
#
# Track frame offsets:
# 150
# 17072
# 34253
# 47076
# 63120
# 80307
# 98019
# 131028
# 151451
# 165803
#
# Disc length: 2592 seconds
#
#
# Revision: 0
# Processed by: cddbd v1.5.1PL2 Copyright (c) Steve Scherf et al.
# Submitted via: FreeRIP 2.944 
#
DISCID=6e0a1e0a
DTITLE=Johnny Winter - The Progressive Blues Experiment
DYEAR=1969
DGENRE=Blues
TTITLE0=Rollin' and Tumblin
TTITLE1=Tribute to Muddy
TTITLE2=I Got Love If you Want It
TTITLE3=Bad Luck and Trouble
TTITLE4=Help Me
TTITLE5=Mean Town Blues
TTITLE6=Broke Down Engine
TTITLE7=Black Cat Bone
TTITLE8=It's my Own Fault
TTITLE9=Forty-Four
EXTD=
EXTT0=
EXTT1=
EXTT2=
EXTT3=
EXTT4=
EXTT5=
EXTT6=
EXTT7=
EXTT8=
EXTT9=
PLAYORDER=
